<svg xmlns="http://www.w3.org/2000/svg" viewBox="0 0 739.55 208.54"><defs><style>.a{fill:#004876;}.b{fill:#ffb819;}</style></defs><title>keystone</title><path class="a" d="M0,158.83V35.43l25.9-3.6v127H0ZM51.63,71.21h27.7l-23,43.54,24.1,44.07H52.7L29.32,114.75Z"/><path class="a" d="M116.21,124.12v2.51c0,10.06,4,12.77,15.83,12.77a102.67,102.67,0,0,0,26.62-3.78L162.42,155a104.36,104.36,0,0,1-32.91,5.59c-28.41,0-39.21-14.05-39.21-35.63V104.5c0-18.89,8.46-35.07,37.59-35.07s35.45,17.26,35.45,36.33v18.36H116.21Zm22.66-23.22c0-6.11-1.8-11.16-10.79-11.16s-11.87,5-11.87,11.16v3.78h22.66V100.9Z"/><polygon class="a" points="192.03 208.12 202.53 172.78 198.41 158.83 171.43 71.22 197.69 71.22 215.5 133.28 233.3 71.22 259.57 71.22 232.05 158.83 216.5 208.12 192.03 208.12"/><path class="a" d="M298.61,160.63a116.82,116.82,0,0,1-31.84-5.22l4.13-19.26a94.38,94.38,0,0,0,26.44,4c7.73,0,9-2.17,9-7.37,0-5.59-.18-6.3-14.21-9.71-21.23-5.23-23.21-11-23.21-27.36,0-18.53,7.18-26.26,33.47-26.26,6.64,0,18.87.9,26.61,2.88l-2.33,20.14a146.45,146.45,0,0,0-24.1-2.52c-7.56,0-9.36,2-9.36,5.95,0,5.39.72,6.11,11.16,8.45,25,5.57,26.8,11,26.8,28.43,0,18-7.55,27.88-32.55,27.88"/><path class="a" d="M378.47,160.63c-16.72,0-26.44-6.3-26.44-22.49v-46H340.16V71.21H352v-21l25.91-3.59V71.21h20l-1.45,20.88H377.93v42.45c0,3.6,2.16,4.85,5.39,4.85a35.46,35.46,0,0,0,10.79-1.62l3.06,19.62a60.82,60.82,0,0,1-18.71,3.24"/><path class="a" d="M409.4,125.19V104.86c0-18,8.45-35.44,39.58-35.44s39.58,17.45,39.58,35.44v20.33c0,18-8.46,35.45-39.58,35.45s-39.58-17.45-39.58-35.45m53.24,0.72V104.14c0-8.27-4.31-13-13.67-13s-13.67,4.68-13.67,13v21.77c0,8.27,4.32,12.94,13.67,12.94s13.67-4.67,13.67-12.94"/><path class="a" d="M558.53,158.83V100.9c0-4-1.79-6.29-6.31-6.29-4.67,0-13.3,3.23-18.88,6.29v57.92h-25.9V71.21h19.24l2.7,6.67c10.79-5.22,24.82-8.46,34.9-8.46,14.92,0,20.14,11.17,20.14,28.07v61.34h-25.9Z"/><path class="a" d="M628.32,124.12v2.51c0,10.06,4,12.77,15.83,12.77a102.76,102.76,0,0,0,26.62-3.78L674.54,155a104.32,104.32,0,0,1-32.91,5.59c-28.43,0-39.24-14.05-39.24-35.63V104.5c0-18.89,8.48-35.07,37.62-35.07s35.44,17.26,35.44,36.33v18.36H628.32ZM651,100.9c0-6.11-1.81-11.16-10.79-11.16s-11.88,5-11.88,11.16v3.78H651V100.9Z"/><polygon class="a" points="249.07 183.12 240.63 183.12 240.63 179.86 261.16 179.86 261.16 183.12 252.72 183.12 252.72 208.12 249.07 208.12 249.07 183.12"/><polygon class="a" points="280.46 179.86 297.1 179.86 297.1 183.12 284.11 183.12 284.11 192 296.15 192 296.15 195.25 284.11 195.25 284.11 204.86 297.13 204.86 297.13 208.12 280.46 208.12 280.46 179.86"/><path class="a" d="M321.22,200c0,3.95,1.53,5.22,6.15,5.22a42.91,42.91,0,0,0,6.63-.6l0.38,3.13a35.37,35.37,0,0,1-7.12.77c-6.92,0-9.68-3-9.68-8.32V187.74c0-5.34,2.76-8.31,9.68-8.31a37.15,37.15,0,0,1,7.12.76L334,183.34a43.14,43.14,0,0,0-6.63-.6c-4.62,0-6.15,1.28-6.15,5.23v12Z"/><polygon class="a" points="371.12 208.12 371.12 195.31 358.6 195.31 358.6 208.12 354.95 208.12 354.95 179.86 358.6 179.86 358.6 192.04 371.12 192.04 371.12 179.86 374.77 179.86 374.77 208.12 371.12 208.12"/><polygon class="a" points="400.29 184.06 400.29 208.12 396.82 208.12 396.82 179.87 401.82 179.87 414.12 204.03 414.12 179.87 417.62 179.87 417.62 208.12 412.62 208.12 400.29 184.06"/><path class="a" d="M459.48,200c0,4.72-2.93,8.58-10.22,8.58S439,204.68,439,200V188c0-4.71,2.92-8.57,10.22-8.57s10.22,3.86,10.22,8.57v12Zm-16.8-.08c0,3.48,2.11,5.43,6.58,5.43s6.58-1.95,6.58-5.43v-11.8c0-3.48-2.13-5.44-6.58-5.44s-6.58,2-6.58,5.44v11.8Z"/><polygon class="a" points="484.54 204.86 496.81 204.86 496.81 208.12 480.9 208.12 480.9 179.86 484.54 179.86 484.54 204.86"/><path class="a" d="M536.77,200c0,4.72-2.93,8.58-10.22,8.58s-10.23-3.86-10.23-8.58V188c0-4.71,2.92-8.57,10.23-8.57s10.22,3.86,10.22,8.57v12Zm-16.8-.08c0,3.48,2.12,5.43,6.58,5.43s6.58-1.95,6.58-5.43v-11.8c0-3.48-2.13-5.44-6.58-5.44s-6.58,2-6.58,5.44v11.8Z"/><path class="a" d="M561.2,200c0,3.61,1.07,5.22,5.9,5.22a27.9,27.9,0,0,0,5.31-.51v-9.6h3.51v12.18a33.54,33.54,0,0,1-9,1.23c-7.21,0-9.4-3.09-9.4-8.32V187.79c0-5.74,2.83-8.36,9.88-8.36a37.65,37.65,0,0,1,7.84.89l-0.42,3.14a45.78,45.78,0,0,0-7.6-.73c-4.66,0-6.07,1.4-6.07,5.23v12Z"/><rect class="a" x="597.77" y="179.86" width="3.65" height="28.26"/><polygon class="a" points="623.68 179.86 640.32 179.86 640.32 183.12 627.33 183.12 627.33 192 639.38 192 639.38 195.25 627.33 195.25 627.33 204.86 640.35 204.86 640.35 208.12 623.68 208.12 623.68 179.86"/><path class="a" d="M668.78,208.54a24.14,24.14,0,0,1-8.4-1.48l0.6-3a26.79,26.79,0,0,0,7.87,1.22c4.54,0,5.48-1.19,5.48-4.42,0-3.8,0-4.15-5.85-5.45-6.84-1.54-7.64-2.86-7.64-8.72,0-4.93,2-7.3,9-7.3a31.61,31.61,0,0,1,7.63.94l-0.29,3.09a34.41,34.41,0,0,0-7.24-.8c-4.63,0-5.47.93-5.47,4.2,0,3.91,0,4.06,5.6,5.47,7.51,1.88,7.89,3,7.89,8.49,0,4.93-1.44,7.72-9.2,7.72"/><path class="b" d="M688.44,96.36a44.88,44.88,0,0,0-13.15-31.94,44.43,44.43,0,0,0-31.72-13.2V32.74a63.54,63.54,0,0,1,63.35,63.61H688.44Z"/><path class="b" d="M721.09,96.38c0-43-34.76-77.91-77.49-77.91V0c52.9,0,95.95,43.22,95.95,96.38H721.09Z"/></svg>